<?xml version="1.0" standalone="no"?>
<!DOCTYPE svg PUBLIC "-//W3C//DTD SVG 20010904//EN"
 "http://www.w3.org/TR/2001/REC-SVG-20010904/DTD/svg10.dtd">
<svg version="1.0" xmlns="http://www.w3.org/2000/svg"
 width="750.000000pt" height="750.000000pt" viewBox="0 0 750.000000 750.000000"
 preserveAspectRatio="xMidYMid meet">
<metadata>
Created by potrace 1.14, written by Peter Selinger 2001-2017
</metadata>
<g transform="translate(0.000000,750.000000) scale(0.100000,-0.100000)"
fill="#000000" stroke="none">
<path d="M3518 7495 c-2 -1 -39 -6 -83 -9 -146 -12 -254 -27 -440 -62 -80 -15
-319 -79 -428 -115 -379 -126 -785 -340 -1082 -571 -27 -21 -63 -49 -79 -61
-15 -12 -33 -26 -40 -32 -236 -202 -397 -368 -587 -605 -30 -38 -198 -282
-236 -345 -129 -210 -267 -508 -351 -760 -51 -153 -123 -436 -138 -540 -2 -16
-6 -46 -9 -65 -32 -197 -40 -319 -39 -595 0 -210 6 -348 18 -411 2 -11 7 -46
11 -79 5 -50 32 -208 49 -292 3 -12 20 -82 40 -155 149 -565 418 -1074 801
-1514 78 -91 284 -296 360 -359 32 -28 66 -57 76 -65 47 -43 202 -159 304
-227 351 -233 708 -395 1120 -507 72 -19 144 -37 160 -40 17 -2 55 -10 85 -16
94 -19 149 -28 252 -41 165 -20 237 -24 468 -24 245 0 314 4 520 30 272 35
690 149 918 251 29 13 55 24 57 24 8 0 247 117 310 152 50 28 130 75 219 131
30 19 216 147 234 162 10 8 58 46 107 86 119 96 128 104 274 249 151 150 180
182 294 325 79 100 254 348 270 385 4 8 17 31 29 50 205 332 375 786 454 1210
12 63 24 139 29 185 4 28 8 60 10 73 20 122 27 580 12 747 -14 160 -39 332
-63 435 -3 14 -8 39 -10 55 -12 67 -69 268 -111 395 -118 353 -305 713 -527
1015 -202 275 -440 521 -713 735 -43 34 -85 67 -94 74 -9 7 -74 52 -145 99
-271 180 -577 330 -874 430 -124 42 -322 97 -395 111 -197 36 -312 55 -372 61
-40 4 -85 9 -100 11 -31 5 -560 14 -565 9z"/>
</g>
</svg>
